<mxfile host="app.diagrams.net" agent="Mozilla/5.0 (Macintosh; Intel Mac OS X 10_15_7) AppleWebKit/537.36 (KHTML, like Gecko) Chrome/132.0.0.0 YaBrowser/25.2.0.0 Safari/537.36" version="26.0.10">
  <diagram name="Страница — 1" id="V5RNPmWzBiY2sBLv1XoM">
    <mxGraphModel dx="781" dy="452" grid="1" gridSize="10" guides="1" tooltips="1" connect="1" arrows="1" fold="1" page="1" pageScale="1" pageWidth="827" pageHeight="1169" math="0" shadow="0">
      <root>
        <mxCell id="0" />
        <mxCell id="1" parent="0" />
        <mxCell id="EZQ-IJxky8cUHpVH1VPr-38" value="" style="rounded=0;whiteSpace=wrap;html=1;dashed=1;" vertex="1" parent="1">
          <mxGeometry x="40" y="290" width="390" height="90" as="geometry" />
        </mxCell>
        <mxCell id="EZQ-IJxky8cUHpVH1VPr-13" value="" style="rounded=0;whiteSpace=wrap;html=1;dashed=1;" vertex="1" parent="1">
          <mxGeometry x="40" y="100" width="390" height="170" as="geometry" />
        </mxCell>
        <mxCell id="V5fwdGufG5A-oWQXooKM-1" value="MES" style="rounded=0;whiteSpace=wrap;html=1;" parent="1" vertex="1">
          <mxGeometry x="40" y="40" width="70" height="50" as="geometry" />
        </mxCell>
        <mxCell id="V5fwdGufG5A-oWQXooKM-2" value="Cache" style="rounded=0;whiteSpace=wrap;html=1;" parent="1" vertex="1">
          <mxGeometry x="210" y="40" width="70" height="50" as="geometry" />
        </mxCell>
        <mxCell id="V5fwdGufG5A-oWQXooKM-3" value="" style="rounded=0;whiteSpace=wrap;html=1;" parent="1" vertex="1">
          <mxGeometry x="65" y="110" width="20" height="150" as="geometry" />
        </mxCell>
        <mxCell id="V5fwdGufG5A-oWQXooKM-4" value="" style="rounded=0;whiteSpace=wrap;html=1;" parent="1" vertex="1">
          <mxGeometry x="235" y="220" width="20" height="30" as="geometry" />
        </mxCell>
        <mxCell id="V5fwdGufG5A-oWQXooKM-5" value="" style="endArrow=none;dashed=1;html=1;rounded=0;entryX=0.5;entryY=1;entryDx=0;entryDy=0;exitX=0.5;exitY=0;exitDx=0;exitDy=0;" parent="1" source="V5fwdGufG5A-oWQXooKM-3" target="V5fwdGufG5A-oWQXooKM-1" edge="1">
          <mxGeometry width="50" height="50" relative="1" as="geometry">
            <mxPoint x="170" y="280" as="sourcePoint" />
            <mxPoint x="220" y="230" as="targetPoint" />
          </mxGeometry>
        </mxCell>
        <mxCell id="V5fwdGufG5A-oWQXooKM-6" value="" style="endArrow=none;dashed=1;html=1;rounded=0;entryX=0.5;entryY=0;entryDx=0;entryDy=0;exitX=0.5;exitY=1;exitDx=0;exitDy=0;" parent="1" source="V5fwdGufG5A-oWQXooKM-2" target="V5fwdGufG5A-oWQXooKM-4" edge="1">
          <mxGeometry width="50" height="50" relative="1" as="geometry">
            <mxPoint x="85" y="120" as="sourcePoint" />
            <mxPoint x="85" y="100" as="targetPoint" />
          </mxGeometry>
        </mxCell>
        <mxCell id="V5fwdGufG5A-oWQXooKM-9" value="MES db" style="rounded=0;whiteSpace=wrap;html=1;" parent="1" vertex="1">
          <mxGeometry x="360" y="40" width="70" height="50" as="geometry" />
        </mxCell>
        <mxCell id="V5fwdGufG5A-oWQXooKM-11" value="" style="endArrow=none;dashed=1;html=1;rounded=0;entryX=0.5;entryY=0;entryDx=0;entryDy=0;exitX=0.5;exitY=1;exitDx=0;exitDy=0;" parent="1" source="V5fwdGufG5A-oWQXooKM-9" edge="1">
          <mxGeometry width="50" height="50" relative="1" as="geometry">
            <mxPoint x="235" y="120" as="sourcePoint" />
            <mxPoint x="395" y="240" as="targetPoint" />
          </mxGeometry>
        </mxCell>
        <mxCell id="V5fwdGufG5A-oWQXooKM-17" style="edgeStyle=orthogonalEdgeStyle;rounded=0;orthogonalLoop=1;jettySize=auto;html=1;exitX=0;exitY=0.75;exitDx=0;exitDy=0;entryX=1.006;entryY=0.362;entryDx=0;entryDy=0;entryPerimeter=0;" parent="1" edge="1">
          <mxGeometry relative="1" as="geometry">
            <mxPoint x="235" y="140.5" as="sourcePoint" />
            <mxPoint x="85.11999999999989" y="142.82000000000005" as="targetPoint" />
            <Array as="points">
              <mxPoint x="235" y="143" />
              <mxPoint x="160" y="143" />
            </Array>
          </mxGeometry>
        </mxCell>
        <mxCell id="V5fwdGufG5A-oWQXooKM-15" value="" style="rounded=0;whiteSpace=wrap;html=1;" parent="1" vertex="1">
          <mxGeometry x="235" y="110" width="20" height="50" as="geometry" />
        </mxCell>
        <mxCell id="V5fwdGufG5A-oWQXooKM-16" value="" style="endArrow=classic;html=1;rounded=0;entryX=-0.008;entryY=0.197;entryDx=0;entryDy=0;entryPerimeter=0;exitX=1.021;exitY=0.065;exitDx=0;exitDy=0;exitPerimeter=0;" parent="1" source="V5fwdGufG5A-oWQXooKM-3" target="V5fwdGufG5A-oWQXooKM-15" edge="1">
          <mxGeometry width="50" height="50" relative="1" as="geometry">
            <mxPoint x="140" y="80" as="sourcePoint" />
            <mxPoint x="230" y="120" as="targetPoint" />
          </mxGeometry>
        </mxCell>
        <mxCell id="V5fwdGufG5A-oWQXooKM-50" value="" style="endArrow=none;dashed=1;html=1;rounded=0;entryX=0.5;entryY=0;entryDx=0;entryDy=0;exitX=0.5;exitY=1;exitDx=0;exitDy=0;" parent="1" source="V5fwdGufG5A-oWQXooKM-54" target="EZQ-IJxky8cUHpVH1VPr-22" edge="1">
          <mxGeometry width="50" height="50" relative="1" as="geometry">
            <mxPoint x="235" y="280" as="sourcePoint" />
            <mxPoint x="395" y="360.0000000000001" as="targetPoint" />
          </mxGeometry>
        </mxCell>
        <mxCell id="V5fwdGufG5A-oWQXooKM-53" value="" style="endArrow=classic;html=1;rounded=0;entryX=0;entryY=0.25;entryDx=0;entryDy=0;" parent="1" target="V5fwdGufG5A-oWQXooKM-54" edge="1">
          <mxGeometry width="50" height="50" relative="1" as="geometry">
            <mxPoint x="85" y="183" as="sourcePoint" />
            <mxPoint x="240" y="80" as="targetPoint" />
          </mxGeometry>
        </mxCell>
        <mxCell id="V5fwdGufG5A-oWQXooKM-54" value="" style="rounded=0;whiteSpace=wrap;html=1;" parent="1" vertex="1">
          <mxGeometry x="385" y="170" width="20" height="50" as="geometry" />
        </mxCell>
        <mxCell id="EZQ-IJxky8cUHpVH1VPr-1" value="Get order(s)" style="text;html=1;align=center;verticalAlign=middle;whiteSpace=wrap;rounded=0;" vertex="1" parent="1">
          <mxGeometry x="100" y="97" width="110" height="30" as="geometry" />
        </mxCell>
        <mxCell id="EZQ-IJxky8cUHpVH1VPr-2" value="Order(s) or NULL" style="text;html=1;align=center;verticalAlign=middle;whiteSpace=wrap;rounded=0;" vertex="1" parent="1">
          <mxGeometry x="100" y="120" width="110" height="30" as="geometry" />
        </mxCell>
        <mxCell id="EZQ-IJxky8cUHpVH1VPr-3" value="" style="endArrow=none;dashed=1;html=1;rounded=0;entryX=0.5;entryY=1;entryDx=0;entryDy=0;exitX=0.5;exitY=0;exitDx=0;exitDy=0;" edge="1" parent="1" source="EZQ-IJxky8cUHpVH1VPr-16" target="V5fwdGufG5A-oWQXooKM-3">
          <mxGeometry width="50" height="50" relative="1" as="geometry">
            <mxPoint x="75" y="420" as="sourcePoint" />
            <mxPoint x="75" y="220" as="targetPoint" />
          </mxGeometry>
        </mxCell>
        <mxCell id="EZQ-IJxky8cUHpVH1VPr-4" value="Get order(s)" style="text;html=1;align=center;verticalAlign=middle;whiteSpace=wrap;rounded=0;" vertex="1" parent="1">
          <mxGeometry x="100" y="160" width="140" height="30" as="geometry" />
        </mxCell>
        <mxCell id="EZQ-IJxky8cUHpVH1VPr-6" value="" style="endArrow=classic;html=1;rounded=0;entryX=1.05;entryY=0.45;entryDx=0;entryDy=0;entryPerimeter=0;" edge="1" parent="1" target="EZQ-IJxky8cUHpVH1VPr-11">
          <mxGeometry width="50" height="50" relative="1" as="geometry">
            <mxPoint x="384" y="200" as="sourcePoint" />
            <mxPoint x="85" y="200" as="targetPoint" />
          </mxGeometry>
        </mxCell>
        <mxCell id="EZQ-IJxky8cUHpVH1VPr-9" value="" style="endArrow=classic;html=1;rounded=0;entryX=-0.008;entryY=0.197;entryDx=0;entryDy=0;entryPerimeter=0;exitX=1.021;exitY=0.065;exitDx=0;exitDy=0;exitPerimeter=0;" edge="1" parent="1">
          <mxGeometry width="50" height="50" relative="1" as="geometry">
            <mxPoint x="85" y="233" as="sourcePoint" />
            <mxPoint x="235" y="233" as="targetPoint" />
          </mxGeometry>
        </mxCell>
        <mxCell id="EZQ-IJxky8cUHpVH1VPr-10" value="Set order(s)" style="text;html=1;align=center;verticalAlign=middle;whiteSpace=wrap;rounded=0;" vertex="1" parent="1">
          <mxGeometry x="100" y="210" width="110" height="30" as="geometry" />
        </mxCell>
        <mxCell id="EZQ-IJxky8cUHpVH1VPr-11" value="If NULL" style="rounded=0;whiteSpace=wrap;html=1;horizontal=0;" vertex="1" parent="1">
          <mxGeometry x="70" y="160" width="20" height="90" as="geometry" />
        </mxCell>
        <mxCell id="EZQ-IJxky8cUHpVH1VPr-14" value="Get order(s)" style="text;html=1;align=center;verticalAlign=middle;whiteSpace=wrap;rounded=0;rotation=-90;" vertex="1" parent="1">
          <mxGeometry y="160" width="100" height="30" as="geometry" />
        </mxCell>
        <mxCell id="EZQ-IJxky8cUHpVH1VPr-16" value="" style="rounded=0;whiteSpace=wrap;html=1;" vertex="1" parent="1">
          <mxGeometry x="65" y="300" width="20" height="70" as="geometry" />
        </mxCell>
        <mxCell id="EZQ-IJxky8cUHpVH1VPr-18" value="" style="endArrow=none;dashed=1;html=1;rounded=0;entryX=0.5;entryY=1;entryDx=0;entryDy=0;exitX=0.5;exitY=0;exitDx=0;exitDy=0;" edge="1" parent="1" source="EZQ-IJxky8cUHpVH1VPr-16">
          <mxGeometry width="50" height="50" relative="1" as="geometry">
            <mxPoint x="170" y="470" as="sourcePoint" />
            <mxPoint x="75" y="280" as="targetPoint" />
          </mxGeometry>
        </mxCell>
        <mxCell id="EZQ-IJxky8cUHpVH1VPr-23" value="" style="endArrow=classic;html=1;rounded=0;entryX=-0.008;entryY=0.197;entryDx=0;entryDy=0;entryPerimeter=0;exitX=1.02;exitY=0.147;exitDx=0;exitDy=0;exitPerimeter=0;" edge="1" parent="1" source="EZQ-IJxky8cUHpVH1VPr-16" target="EZQ-IJxky8cUHpVH1VPr-22">
          <mxGeometry width="50" height="50" relative="1" as="geometry">
            <mxPoint x="140" y="270" as="sourcePoint" />
            <mxPoint x="230" y="310" as="targetPoint" />
          </mxGeometry>
        </mxCell>
        <mxCell id="EZQ-IJxky8cUHpVH1VPr-24" value="" style="endArrow=classic;html=1;rounded=0;entryX=0;entryY=0.5;entryDx=0;entryDy=0;exitX=1.061;exitY=0.795;exitDx=0;exitDy=0;exitPerimeter=0;" edge="1" parent="1" target="EZQ-IJxky8cUHpVH1VPr-25" source="EZQ-IJxky8cUHpVH1VPr-16">
          <mxGeometry width="50" height="50" relative="1" as="geometry">
            <mxPoint x="100" y="380" as="sourcePoint" />
            <mxPoint x="240.5" y="249.71" as="targetPoint" />
          </mxGeometry>
        </mxCell>
        <mxCell id="EZQ-IJxky8cUHpVH1VPr-26" value="Update order" style="text;html=1;align=center;verticalAlign=middle;whiteSpace=wrap;rounded=0;" vertex="1" parent="1">
          <mxGeometry x="100" y="287" width="110" height="30" as="geometry" />
        </mxCell>
        <mxCell id="EZQ-IJxky8cUHpVH1VPr-28" value="Invalidate order cache" style="text;html=1;align=center;verticalAlign=middle;whiteSpace=wrap;rounded=0;" vertex="1" parent="1">
          <mxGeometry x="90" y="330" width="140" height="30" as="geometry" />
        </mxCell>
        <mxCell id="EZQ-IJxky8cUHpVH1VPr-33" value="Update order" style="text;html=1;align=center;verticalAlign=middle;whiteSpace=wrap;rounded=0;rotation=-90;" vertex="1" parent="1">
          <mxGeometry y="320" width="100" height="30" as="geometry" />
        </mxCell>
        <mxCell id="EZQ-IJxky8cUHpVH1VPr-34" value="" style="endArrow=none;dashed=1;html=1;rounded=0;entryX=0.5;entryY=0;entryDx=0;entryDy=0;exitX=0.5;exitY=1;exitDx=0;exitDy=0;" edge="1" parent="1" target="EZQ-IJxky8cUHpVH1VPr-22">
          <mxGeometry width="50" height="50" relative="1" as="geometry">
            <mxPoint x="395" y="280" as="sourcePoint" />
            <mxPoint x="395" y="430" as="targetPoint" />
          </mxGeometry>
        </mxCell>
        <mxCell id="EZQ-IJxky8cUHpVH1VPr-22" value="" style="rounded=0;whiteSpace=wrap;html=1;" vertex="1" parent="1">
          <mxGeometry x="385" y="300" width="20" height="50" as="geometry" />
        </mxCell>
        <mxCell id="EZQ-IJxky8cUHpVH1VPr-35" value="" style="endArrow=classic;html=1;rounded=0;" edge="1" parent="1">
          <mxGeometry width="50" height="50" relative="1" as="geometry">
            <mxPoint x="384.5" y="324.71" as="sourcePoint" />
            <mxPoint x="85.5" y="324.71" as="targetPoint" />
          </mxGeometry>
        </mxCell>
        <mxCell id="EZQ-IJxky8cUHpVH1VPr-36" value="" style="endArrow=none;dashed=1;html=1;rounded=0;entryX=0.5;entryY=0;entryDx=0;entryDy=0;exitX=0.5;exitY=1;exitDx=0;exitDy=0;" edge="1" parent="1" target="EZQ-IJxky8cUHpVH1VPr-25">
          <mxGeometry width="50" height="50" relative="1" as="geometry">
            <mxPoint x="245" y="280" as="sourcePoint" />
            <mxPoint x="245" y="410" as="targetPoint" />
          </mxGeometry>
        </mxCell>
        <mxCell id="EZQ-IJxky8cUHpVH1VPr-37" value="" style="endArrow=none;dashed=1;html=1;rounded=0;exitX=0.5;exitY=1;exitDx=0;exitDy=0;" edge="1" parent="1" source="V5fwdGufG5A-oWQXooKM-4" target="EZQ-IJxky8cUHpVH1VPr-25">
          <mxGeometry width="50" height="50" relative="1" as="geometry">
            <mxPoint x="245" y="250" as="sourcePoint" />
            <mxPoint x="245" y="420" as="targetPoint" />
          </mxGeometry>
        </mxCell>
        <mxCell id="EZQ-IJxky8cUHpVH1VPr-25" value="" style="rounded=0;whiteSpace=wrap;html=1;" vertex="1" parent="1">
          <mxGeometry x="235" y="339.71" width="20" height="30.29" as="geometry" />
        </mxCell>
      </root>
    </mxGraphModel>
  </diagram>
</mxfile>
